<svg xmlns="http://www.w3.org/2000/svg" width="104" height="66" viewBox="0 0 104 66" fill="none">
  <rect width="104" height="66" rx="4" fill="#2E263D" fill-opacity="0.02"/>
  <rect x="4.90625" y="23.8839" width="17.6604" height="2.78946" rx="1.39473" fill="#2E263D" fill-opacity="0.3"/>
  <rect x="8.83008" y="5.88135" width="9.81132" height="9.70588" rx="2" fill="#2E263D" fill-opacity="0.3"/>
  <rect x="4.90625" y="34.4381" width="17.6604" height="2.78946" rx="1.39473" fill="#2E263D" fill-opacity="0.3"/>
  <rect x="4.90625" y="44.9923" width="17.6604" height="2.78946" rx="1.39473" fill="#2E263D" fill-opacity="0.3"/>
  <rect x="4.90625" y="55.5462" width="17.6604" height="2.78946" rx="1.39473" fill="#2E263D" fill-opacity="0.3"/>
  <rect x="34.6152" y="5.17166" width="63.7547" height="7.8" rx="1.5" stroke="#2E263D" stroke-opacity="0.12"/>
  <rect x="37.0391" y="6.87158" width="3.92453" height="4.4" rx="1" fill="#2E263D" fill-opacity="0.3"/>
  <rect x="80.21" y="6.87158" width="3.92453" height="4.4" rx="1" fill="#2E263D" fill-opacity="0.3"/>
  <rect x="86.0957" y="6.87158" width="3.92453" height="4.4" rx="1" fill="#2E263D" fill-opacity="0.3"/>
  <rect x="91.002" y="6.87158" width="3.92453" height="4.4" rx="1" fill="#2E263D" fill-opacity="0.3"/>
  <rect x="58.9844" y="20.1134" width="39.2264" height="16.6" rx="1.5" stroke="#2E263D" stroke-opacity="0.12"/>
  <rect x="34.6152" y="20.1134" width="18.0455" height="16.6" rx="1.5" stroke="#2E263D" stroke-opacity="0.12"/>
  <rect x="34.6152" y="42.9545" width="63.7547" height="16.6" rx="1.5" stroke="#2E263D" stroke-opacity="0.12"/>
</svg>
