<svg width="106" height="69" viewBox="0 0 106 69" fill="none" xmlns="http://www.w3.org/2000/svg">
<g clip-path="url(#clip0_2270_141636)">
<path d="M102 0.284424H4C1.79086 0.284424 0 2.07528 0 4.28442V64.2844C0 66.4936 1.79086 68.2844 4 68.2844H102C104.209 68.2844 106 66.4936 106 64.2844V4.28442C106 2.07528 104.209 0.284424 102 0.284424Z" fill="#8692D0" fill-opacity="0.04"/>
<path d="M0 4.28442C0 2.07528 1.79086 0.284424 4 0.284424H28V68.2845H4C1.79086 68.2845 0 66.4936 0 64.2845V4.28442Z" fill="#8692D0" fill-opacity="0.08"/>
<path d="M21.563 24.8921H6.43699C5.64336 24.8921 5 25.5355 5 26.3291V26.3291C5 27.1227 5.64336 27.7661 6.43699 27.7661H21.563C22.3566 27.7661 23 27.1227 23 26.3291C23 25.5355 22.3566 24.8921 21.563 24.8921Z" fill="#8692D0" fill-opacity="0.16"/>
<path d="M17 6.34387H11C9.89543 6.34387 9 7.2393 9 8.34387V14.3439C9 15.4484 9.89543 16.3439 11 16.3439H17C18.1046 16.3439 19 15.4484 19 14.3439V8.34387C19 7.2393 18.1046 6.34387 17 6.34387Z" fill="#8692D0" fill-opacity="0.16"/>
<path d="M21.563 35.7661H6.43699C5.64336 35.7661 5 36.4095 5 37.2031V37.2031C5 37.9967 5.64336 38.6401 6.43699 38.6401H21.563C22.3566 38.6401 23 37.9967 23 37.2031C23 36.4095 22.3566 35.7661 21.563 35.7661Z" fill="#8692D0" fill-opacity="0.16"/>
<path d="M21.563 46.64H6.43699C5.64336 46.64 5 47.2834 5 48.077V48.077C5 48.8706 5.64336 49.514 6.43699 49.514H21.563C22.3566 49.514 23 48.8706 23 48.077C23 47.2834 22.3566 46.64 21.563 46.64Z" fill="#8692D0" fill-opacity="0.16"/>
<path d="M21.563 57.514H6.43699C5.64336 57.514 5 58.1574 5 58.951V58.951C5 59.7447 5.64336 60.388 6.43699 60.388H21.563C22.3566 60.388 23 59.7447 23 58.951C23 58.1574 22.3566 57.514 21.563 57.514Z" fill="#8692D0" fill-opacity="0.16"/>
<path d="M96.7715 5.09766H34.7715C33.6669 5.09766 32.7715 5.99309 32.7715 7.09766V12.1643C32.7715 13.2689 33.6669 14.1643 34.7715 14.1643H96.7715C97.8761 14.1643 98.7715 13.2689 98.7715 12.1643V7.09766C98.7715 5.99309 97.8761 5.09766 96.7715 5.09766Z" fill="#8692D0" fill-opacity="0.08"/>
<path d="M38.752 7.36426H36.752C36.1997 7.36426 35.752 7.81197 35.752 8.36426V10.8976C35.752 11.4499 36.1997 11.8976 36.752 11.8976H38.752C39.3042 11.8976 39.752 11.4499 39.752 10.8976V8.36426C39.752 7.81197 39.3042 7.36426 38.752 7.36426Z" fill="#8692D0" fill-opacity="0.16"/>
<path d="M82.752 7.36426H80.752C80.1997 7.36426 79.752 7.81197 79.752 8.36426V10.8976C79.752 11.4499 80.1997 11.8976 80.752 11.8976H82.752C83.3042 11.8976 83.752 11.4499 83.752 10.8976V8.36426C83.752 7.81197 83.3042 7.36426 82.752 7.36426Z" fill="#8692D0" fill-opacity="0.16"/>
<path d="M88.752 7.36426H86.752C86.1997 7.36426 85.752 7.81197 85.752 8.36426V10.8976C85.752 11.4499 86.1997 11.8976 86.752 11.8976H88.752C89.3042 11.8976 89.752 11.4499 89.752 10.8976V8.36426C89.752 7.81197 89.3042 7.36426 88.752 7.36426Z" fill="#8692D0" fill-opacity="0.16"/>
<path d="M94.752 7.36426H92.752C92.1997 7.36426 91.752 7.81197 91.752 8.36426V10.8976C91.752 11.4499 92.1997 11.8976 92.752 11.8976H94.752C95.3042 11.8976 95.752 11.4499 95.752 10.8976V8.36426C95.752 7.81197 95.3042 7.36426 94.752 7.36426Z" fill="#8692D0" fill-opacity="0.16"/>
<path d="M97.1836 20.4922H60.1836C59.079 20.4922 58.1836 21.3876 58.1836 22.4922V36.6255C58.1836 37.7301 59.079 38.6255 60.1836 38.6255H97.1836C98.2882 38.6255 99.1836 37.7301 99.1836 36.6255V22.4922C99.1836 21.3876 98.2882 20.4922 97.1836 20.4922Z" fill="#8692D0" fill-opacity="0.08"/>
<path d="M50.1833 20.4922H34.7715C33.6669 20.4922 32.7715 21.3876 32.7715 22.4922V36.6255C32.7715 37.7301 33.6669 38.6255 34.7715 38.6255H50.1833C51.2879 38.6255 52.1833 37.7301 52.1833 36.6255V22.4922C52.1833 21.3876 51.2879 20.4922 50.1833 20.4922Z" fill="#8692D0" fill-opacity="0.08"/>
<path d="M97.1836 44.0254H34.7715C33.6669 44.0254 32.7715 44.9208 32.7715 46.0254V60.1587C32.7715 61.2633 33.6669 62.1587 34.7715 62.1587H97.1836C98.2882 62.1587 99.1836 61.2633 99.1836 60.1587V46.0254C99.1836 44.9208 98.2882 44.0254 97.1836 44.0254Z" fill="#8692D0" fill-opacity="0.08"/>
</g>
<defs>
<clipPath id="clip0_2270_141636">
<rect width="106" height="69" fill="white"/>
</clipPath>
</defs>
</svg>
