<svg width="1em" height="1em" viewBox="0 0 43 42" fill="none" xmlns="http://www.w3.org/2000/svg">
<g id="Paper">
<path id="Vector" opacity="0.2" d="M34.8347 5.89001L4.25347 14.5033C3.99315 14.5745 3.76109 14.7242 3.58892 14.932C3.41674 15.1398 3.31281 15.3956 3.29129 15.6647C3.26977 15.9337 3.3317 16.2028 3.46865 16.4353C3.60559 16.6679 3.8109 16.8526 4.0566 16.9642L18.1003 23.6088C18.3754 23.7362 18.5964 23.9571 18.7238 24.2322L25.3683 38.2759C25.48 38.5216 25.6647 38.7269 25.8972 38.8639C26.1298 39.0008 26.3989 39.0628 26.6679 39.0412C26.9369 39.0197 27.1927 38.9158 27.4006 38.7436C27.6084 38.5714 27.7581 38.3394 27.8293 38.0791L36.4425 7.49782C36.5078 7.27466 36.5118 7.03804 36.4542 6.81279C36.3966 6.58753 36.2794 6.38192 36.115 6.21751C35.9506 6.0531 35.745 5.93594 35.5198 5.87832C35.2945 5.8207 35.0579 5.82474 34.8347 5.89001Z" fill="currentColor"/>
<path id="Union" fill-rule="evenodd" clip-rule="evenodd" d="M35.7676 4.90951C35.3704 4.80791 34.9532 4.81452 34.5595 4.92862L3.98975 13.5387L3.98553 13.5398C3.52858 13.6657 3.12129 13.929 2.81886 14.294C2.5155 14.6602 2.33239 15.1109 2.29448 15.5849C2.25656 16.0589 2.36567 16.533 2.60696 16.9428C2.84676 17.35 3.20553 17.6739 3.63489 17.871L17.6727 24.5127L17.6727 24.5127L17.6801 24.5162C17.7402 24.544 17.7885 24.5923 17.8164 24.6524L17.8163 24.6524L17.8199 24.6599L24.4616 38.6978C24.6587 39.1271 24.9826 39.4858 25.3898 39.7256C25.7995 39.9669 26.2736 40.076 26.7476 40.0381C27.2216 40.0001 27.6724 39.817 28.0385 39.5137C28.4036 39.2113 28.6668 38.804 28.7927 38.347L28.7939 38.3428L37.4023 7.77853L37.4039 7.77315C37.518 7.37938 37.5246 6.96221 37.423 6.56497C37.3209 6.16591 37.1134 5.80166 36.8221 5.5104C36.5309 5.21914 36.1666 5.01159 35.7676 4.90951ZM35.1058 6.85256L34.8347 5.89001L35.1154 6.8498C35.1664 6.83489 35.2205 6.83396 35.2719 6.84713C35.3234 6.86029 35.3704 6.88705 35.4079 6.92461C35.4455 6.96218 35.4723 7.00915 35.4854 7.06061C35.4986 7.11207 35.4977 7.16612 35.4827 7.2171L35.4827 7.21709L35.48 7.22671L26.8667 37.808L26.8667 37.808L26.8647 37.8153C26.8477 37.8773 26.8121 37.9326 26.7626 37.9736C26.7131 38.0146 26.6522 38.0393 26.5881 38.0444C26.5241 38.0496 26.46 38.0348 26.4046 38.0022C26.3493 37.9696 26.3053 37.9207 26.2787 37.8622L26.2722 37.8483L19.7287 24.0181L26.6496 17.0971C27.0402 16.7066 27.0402 16.0734 26.6496 15.6829C26.2591 15.2924 25.626 15.2924 25.2354 15.6829L18.3145 22.6038L4.48428 16.0603L4.47032 16.0538C4.41182 16.0272 4.36294 15.9833 4.33033 15.9279C4.29773 15.8725 4.28298 15.8085 4.28811 15.7444C4.29323 15.6803 4.31798 15.6194 4.35897 15.57C4.39996 15.5205 4.45521 15.4848 4.5172 15.4679L4.5172 15.4679L4.52458 15.4658L35.1058 6.85256Z" fill="currentColor"/>
</g>
</svg>
