<?xml version="1.0" encoding="UTF-8"?>
<!DOCTYPE svg PUBLIC "-//W3C//DTD SVG 1.1//EN" "http://www.w3.org/Graphics/SVG/1.1/DTD/svg11.dtd">
<svg xmlns="http://www.w3.org/2000/svg" version="1.1" width="512px" height="512px" style="shape-rendering:geometricPrecision; text-rendering:geometricPrecision; image-rendering:optimizeQuality; fill-rule:evenodd; clip-rule:evenodd" xmlns:xlink="http://www.w3.org/1999/xlink">
<g><path style="opacity:0.998" fill="#fbe9ca" d="M 170.5,-0.5 C 175.5,-0.5 180.5,-0.5 185.5,-0.5C 194.79,2.96315 200.29,9.62981 202,19.5C 202.5,98.166 202.667,176.833 202.5,255.5C 186.167,255.5 169.833,255.5 153.5,255.5C 153.333,177.166 153.5,98.8326 154,20.5C 155.693,10.4204 161.193,3.42037 170.5,-0.5 Z"/></g>
<g><path style="opacity:0.989" fill="#ee9b31" d="M 279.5,255.5 C 263.5,255.5 247.5,255.5 231.5,255.5C 231.333,204.832 231.5,154.166 232,103.5C 237.663,88.8488 248.163,83.3488 263.5,87C 271.401,89.9016 276.567,95.4016 279,103.5C 279.5,154.166 279.667,204.832 279.5,255.5 Z"/></g>
<g><path style="opacity:0.987" fill="#ee9b31" d="M 434.5,255.5 C 418.5,255.5 402.5,255.5 386.5,255.5C 386.333,204.832 386.5,154.166 387,103.5C 392.495,88.6675 402.995,83.1675 418.5,87C 426.52,90.3508 431.687,96.1841 434,104.5C 434.5,154.832 434.667,205.166 434.5,255.5 Z"/></g>
<g><path style="opacity:0.987" fill="#ee9b31" d="M 124.5,255.5 C 108.5,255.5 92.5,255.5 76.5,255.5C 76.3333,219.498 76.5,183.498 77,147.5C 82.008,132.848 92.1747,127.015 107.5,130C 115.667,132.833 121.167,138.333 124,146.5C 124.5,182.832 124.667,219.165 124.5,255.5 Z"/></g>
<g><path style="opacity:0.994" fill="#fbe9ca" d="M 357.5,255.5 C 341.167,255.5 324.833,255.5 308.5,255.5C 308.054,233.122 308.554,210.789 310,188.5C 318.686,172.383 331.186,168.55 347.5,177C 351.491,179.989 354.324,183.822 356,188.5C 357.446,210.789 357.946,233.122 357.5,255.5 Z"/></g>
<g><path style="opacity:0.987" fill="#f6d291" d="M 47.5,255.5 C 31.5,255.5 15.5,255.5 -0.5,255.5C -0.5,247.833 -0.5,240.167 -0.5,232.5C 7.97508,216.064 20.6417,211.897 37.5,220C 41.4906,222.989 44.324,226.822 46,231.5C 47.3633,239.429 47.8633,247.429 47.5,255.5 Z"/></g>
<g><path style="opacity:0.987" fill="#f6d291" d="M 511.5,232.5 C 511.5,240.167 511.5,247.833 511.5,255.5C 495.5,255.5 479.5,255.5 463.5,255.5C 463.137,247.429 463.637,239.429 465,231.5C 472.155,217.176 483.322,212.676 498.5,218C 504.57,221.329 508.904,226.162 511.5,232.5 Z"/></g>
<g><path style="opacity:1" fill="#f1b458" d="M -0.5,255.5 C 15.5,255.5 31.5,255.5 47.5,255.5C 47.8633,263.571 47.3633,271.571 46,279.5C 38.7659,293.581 27.5992,298.081 12.5,293C 6.42975,289.671 2.09642,284.838 -0.5,278.5C -0.5,270.833 -0.5,263.167 -0.5,255.5 Z"/></g>
<g><path style="opacity:1" fill="#e87f23" d="M 76.5,255.5 C 92.5,255.5 108.5,255.5 124.5,255.5C 124.667,291.835 124.5,328.168 124,364.5C 118.543,378.482 108.376,383.982 93.5,381C 84.9304,378.096 79.4304,372.263 77,363.5C 76.5,327.502 76.3333,291.502 76.5,255.5 Z"/></g>
<g><path style="opacity:1" fill="#f1b458" d="M 153.5,255.5 C 169.833,255.5 186.167,255.5 202.5,255.5C 202.667,334.167 202.5,412.834 202,491.5C 200.29,501.37 194.79,508.037 185.5,511.5C 180.5,511.5 175.5,511.5 170.5,511.5C 161.193,507.58 155.693,500.58 154,490.5C 153.5,412.167 153.333,333.834 153.5,255.5 Z"/></g>
<g><path style="opacity:1" fill="#e87f23" d="M 231.5,255.5 C 247.5,255.5 263.5,255.5 279.5,255.5C 279.667,306.168 279.5,356.834 279,407.5C 271.176,424.824 258.676,429.324 241.5,421C 236.781,417.611 233.614,413.111 232,407.5C 231.5,356.834 231.333,306.168 231.5,255.5 Z"/></g>
<g><path style="opacity:1" fill="#f1b458" d="M 308.5,255.5 C 324.833,255.5 341.167,255.5 357.5,255.5C 357.946,277.878 357.446,300.211 356,322.5C 347.275,338.631 334.775,342.464 318.5,334C 314.509,331.011 311.676,327.178 310,322.5C 308.554,300.211 308.054,277.878 308.5,255.5 Z"/></g>
<g><path style="opacity:1" fill="#e87f23" d="M 386.5,255.5 C 402.5,255.5 418.5,255.5 434.5,255.5C 434.667,305.834 434.5,356.168 434,406.5C 427.769,422.865 416.269,428.365 399.5,423C 393.089,419.694 388.922,414.528 387,407.5C 386.5,356.834 386.333,306.168 386.5,255.5 Z"/></g>
<g><path style="opacity:1" fill="#f1b458" d="M 463.5,255.5 C 479.5,255.5 495.5,255.5 511.5,255.5C 511.5,263.167 511.5,270.833 511.5,278.5C 503.025,294.936 490.358,299.103 473.5,291C 469.509,288.011 466.676,284.178 465,279.5C 463.637,271.571 463.137,263.571 463.5,255.5 Z"/></g>
</svg>
