<svg xmlns="http://www.w3.org/2000/svg" width="39" height="22" viewBox="0 0 39 22" fill="none">
<rect width="7.37565" height="21.1131" rx="3.68783" transform="matrix(-0.865206 0.501417 0.498585 0.866841 27.425 0)" fill="currentColor"/>
<rect width="7.37565" height="21.1131" rx="3.68783" transform="matrix(-0.865206 0.501417 0.498585 0.866841 27.5004 0)" fill="url(#paint0_linear_1041_5978)" fill-opacity="0.4"/>
<rect width="7.37565" height="21.1131" rx="3.68783" transform="matrix(0.865206 0.501417 -0.498585 0.866841 24.6698 0)" fill="currentColor"/>
<rect width="7.37565" height="21.1131" rx="3.68783" transform="matrix(-0.865206 0.501417 0.498585 0.866841 13.3428 0)" fill="currentColor"/>
<rect width="7.37565" height="21.1131" rx="3.68783" transform="matrix(-0.865206 0.501417 0.498585 0.866841 13.3815 0)" fill="url(#paint1_linear_1041_5978)" fill-opacity="0.4"/>
<rect width="7.37565" height="21.1131" rx="3.68783" transform="matrix(0.865206 0.501417 -0.498585 0.866841 10.5267 0)" fill="currentColor"/>
<defs>
<linearGradient id="paint0_linear_1041_5978" x1="3.68783" y1="0" x2="3.68783" y2="21.1131" gradientUnits="userSpaceOnUse">
<stop/>
<stop offset="1" stop-opacity="0"/>
</linearGradient>
<linearGradient id="paint1_linear_1041_5978" x1="3.68783" y1="0" x2="3.68783" y2="21.1131" gradientUnits="userSpaceOnUse">
<stop/>
<stop offset="1" stop-opacity="0"/>
</linearGradient>
</defs>
</svg>
