<svg width="1em" height="1em" viewBox="0 0 43 42" fill="none" xmlns="http://www.w3.org/2000/svg">
<path opacity="0.2" d="M35.1707 5.89001L4.58941 14.5033C4.32909 14.5745 4.09703 14.7242 3.92485 14.932C3.75268 15.1398 3.64875 15.3956 3.62723 15.6647C3.60571 15.9337 3.66764 16.2028 3.80458 16.4353C3.94153 16.6679 4.14684 16.8526 4.39253 16.9642L18.4363 23.6088C18.7114 23.7362 18.9323 23.9571 19.0597 24.2322L25.7043 38.2759C25.8159 38.5216 26.0006 38.7269 26.2331 38.8639C26.4657 39.0008 26.7348 39.0628 27.0038 39.0412C27.2728 39.0197 27.5287 38.9158 27.7365 38.7436C27.9443 38.5714 28.094 38.3394 28.1652 38.0791L36.7785 7.49782C36.8437 7.27466 36.8478 7.03804 36.7902 6.81279C36.7325 6.58753 36.6154 6.38192 36.451 6.21751C36.2866 6.0531 36.081 5.93594 35.8557 5.87832C35.6304 5.8207 35.3938 5.82474 35.1707 5.89001V5.89001Z" fill="currentColor"/>
<path fill-rule="evenodd" clip-rule="evenodd" d="M36.1035 4.90951C35.7063 4.80791 35.2892 4.81452 34.8954 4.92862L4.32569 13.5387L4.32147 13.5398C3.86452 13.6657 3.45723 13.929 3.1548 14.294C2.85144 14.6602 2.66833 15.1109 2.63041 15.5849C2.59249 16.0589 2.70161 16.533 2.9429 16.9428C3.1827 17.35 3.54147 17.6739 3.97083 17.871L18.0086 24.5127L18.0086 24.5127L18.016 24.5162C18.0762 24.544 18.1245 24.5923 18.1523 24.6524L18.1523 24.6524L18.1558 24.6599L24.7975 38.6978C24.9946 39.1271 25.3185 39.4858 25.7257 39.7256C26.1354 39.9669 26.6096 40.076 27.0836 40.0381C27.5576 40.0001 28.0083 39.817 28.3745 39.5137C28.7395 39.2112 29.0028 38.804 29.1286 38.347L29.1298 38.3428L37.7383 7.77853L37.7398 7.77315C37.854 7.37938 37.8606 6.96221 37.759 6.56497C37.6569 6.16591 37.4493 5.80166 37.1581 5.5104C36.8668 5.21914 36.5026 5.01159 36.1035 4.90951ZM35.4418 6.85256L35.1707 5.89001L35.4514 6.8498C35.5024 6.83489 35.5564 6.83396 35.6079 6.84713C35.6593 6.86029 35.7063 6.88705 35.7439 6.92461C35.7814 6.96218 35.8082 7.00915 35.8214 7.06061C35.8345 7.11207 35.8336 7.16612 35.8187 7.2171L35.8186 7.21709L35.8159 7.22671L27.2026 37.808L27.2026 37.808L27.2006 37.8153C27.1836 37.8773 27.148 37.9326 27.0985 37.9736C27.049 38.0146 26.9881 38.0393 26.9241 38.0444C26.86 38.0496 26.7959 38.0348 26.7406 38.0022C26.6852 37.9696 26.6412 37.9207 26.6147 37.8622L26.6082 37.8483L20.0646 24.0181L26.9856 17.0971C27.3761 16.7066 27.3761 16.0734 26.9856 15.6829C26.5951 15.2924 25.9619 15.2924 25.5714 15.6829L18.6505 22.6038L4.82021 16.0603L4.80626 16.0538C4.74776 16.0272 4.69888 15.9833 4.66627 15.9279C4.63366 15.8725 4.61892 15.8085 4.62404 15.7444C4.62917 15.6803 4.65391 15.6194 4.69491 15.57C4.7359 15.5205 4.79115 15.4848 4.85313 15.4679L4.85314 15.4679L4.86051 15.4658L35.4418 6.85256Z" fill="currentColor"/>
</svg>
