<svg width="42" height="42" viewBox="0 0 42 42" fill="none" xmlns="http://www.w3.org/2000/svg">
<path opacity="0.2" d="M9.1875 6.25H32.8125C32.8954 6.25 32.9749 6.28292 33.0335 6.34153L33.739 5.63603L33.0335 6.34153C33.0921 6.40013 33.125 6.47962 33.125 6.5625V35.4375C33.125 35.5204 33.0921 35.5999 33.0335 35.6585L33.7406 36.3656L33.0335 35.6585C32.9749 35.7171 32.8954 35.75 32.8125 35.75H9.1875C9.10462 35.75 9.02513 35.7171 8.96653 35.6585L8.25942 36.3656L8.96653 35.6585C8.90792 35.5999 8.875 35.5204 8.875 35.4375V6.5625C8.875 6.47962 8.90792 6.40014 8.96653 6.34153C9.02514 6.28292 9.10462 6.25 9.1875 6.25ZM17.5277 27.5092C18.5555 28.1959 19.7639 28.5625 21 28.5625C22.6576 28.5625 24.2473 27.904 25.4194 26.7319C26.5915 25.5598 27.25 23.9701 27.25 22.3125C27.25 21.0764 26.8834 19.868 26.1967 18.8402C25.5099 17.8124 24.5338 17.0113 23.3918 16.5383C22.2497 16.0652 20.9931 15.9414 19.7807 16.1826C18.5683 16.4237 17.4547 17.019 16.5806 17.8931C15.7065 18.7672 15.1112 19.8808 14.8701 21.0932C14.6289 22.3056 14.7527 23.5622 15.2258 24.7043C15.6988 25.8463 16.4999 26.8224 17.5277 27.5092Z" fill="currentColor" stroke="#9055FD" stroke-width="2"/>
<path d="M21 27.5625C23.8995 27.5625 26.25 25.212 26.25 22.3125C26.25 19.413 23.8995 17.0625 21 17.0625C18.1005 17.0625 15.75 19.413 15.75 22.3125C15.75 25.212 18.1005 27.5625 21 27.5625ZM21 27.5625C19.4718 27.5625 17.9646 27.9183 16.5977 28.6017C15.2309 29.2852 14.0419 30.2774 13.125 31.5M21 27.5625C22.5282 27.5625 24.0354 27.9183 25.4023 28.6017C26.7691 29.2852 27.9581 30.2774 28.875 31.5M15.75 10.5H26.25M34.125 6.5625V35.4375C34.125 36.1624 33.5374 36.75 32.8125 36.75H9.1875C8.46263 36.75 7.875 36.1624 7.875 35.4375V6.5625C7.875 5.83763 8.46263 5.25 9.1875 5.25H32.8125C33.5374 5.25 34.125 5.83763 34.125 6.5625Z" stroke="#9055FD" stroke-width="2" stroke-linecap="round" stroke-linejoin="round"/>
</svg>
