<svg xmlns="http://www.w3.org/2000/svg" width="42" height="43" viewBox="0 0 42 43" fill="none">
  <path d="M6.174 13.4884L20.489 21.4404C20.645 21.5271 20.8206 21.5726 20.9991 21.5726C21.1776 21.5726 21.3532 21.5271 21.5092 21.4404L35.875 13.4604M21 37.4739V21.7239M36.75 13.5916V29.8561C36.7501 30.0436 36.7 30.2277 36.6049 30.3892C36.5098 30.5508 36.3732 30.6839 36.2092 30.7749L21.5093 38.9404C21.3534 39.0268 21.1782 39.0721 21 39.0721C20.8218 39.0721 20.6466 39.0268 20.4907 38.9404L5.79075 30.7749C5.62681 30.6839 5.49019 30.5508 5.3951 30.3892C5.30001 30.2277 5.24991 30.0436 5.25 29.8561V13.5916C5.25022 13.4044 5.30047 13.2207 5.39555 13.0595C5.49062 12.8983 5.62706 12.7654 5.79075 12.6746L20.4907 4.50737C20.6466 4.42095 20.8218 4.37561 21 4.37561C21.1782 4.37561 21.3534 4.42095 21.5093 4.50737L36.2092 12.6746C36.3729 12.7654 36.5094 12.8983 36.6045 13.0595C36.6995 13.2207 36.7498 13.4044 36.75 13.5916Z" stroke="currentColor" stroke-width="3.225" stroke-linecap="round" stroke-linejoin="round"/>
</svg>
