<svg width="1em" height="1em" viewBox="0 0 38 38" fill="none" xmlns="http://www.w3.org/2000/svg">
<g id="Check">
<path id="Vector" opacity="0.2" d="M8.08984 29.9102C6.72422 28.5445 7.62969 25.6797 6.93203 24.0023C6.23438 22.325 3.5625 20.8555 3.5625 19C3.5625 17.1445 6.20469 15.7344 6.93203 13.9977C7.65938 12.2609 6.72422 9.45547 8.08984 8.08984C9.45547 6.72422 12.3203 7.62969 13.9977 6.93203C15.675 6.23438 17.1445 3.5625 19 3.5625C20.8555 3.5625 22.2656 6.20469 24.0023 6.93203C25.7391 7.65938 28.5445 6.72422 29.9102 8.08984C31.2758 9.45547 30.3703 12.3203 31.068 13.9977C31.7656 15.675 34.4375 17.1445 34.4375 19C34.4375 20.8555 31.7953 22.2656 31.068 24.0023C30.3406 25.7391 31.2758 28.5445 29.9102 29.9102C28.5445 31.2758 25.6797 30.3703 24.0023 31.068C22.325 31.7656 20.8555 34.4375 19 34.4375C17.1445 34.4375 15.7344 31.7953 13.9977 31.068C12.2609 30.3406 9.45547 31.2758 8.08984 29.9102Z" fill="currentColor"/>
<path id="Vector_2" d="M25.5312 15.4375L16.818 23.75L12.4687 19.5937M8.08984 29.9102C6.72422 28.5445 7.62969 25.6797 6.93203 24.0023C6.23437 22.325 3.5625 20.8555 3.5625 19C3.5625 17.1445 6.20469 15.7344 6.93203 13.9977C7.65937 12.2609 6.72422 9.45547 8.08984 8.08984C9.45547 6.72422 12.3203 7.62969 13.9977 6.93203C15.675 6.23437 17.1445 3.5625 19 3.5625C20.8555 3.5625 22.2656 6.20469 24.0023 6.93203C25.7391 7.65937 28.5445 6.72422 29.9102 8.08984C31.2758 9.45547 30.3703 12.3203 31.068 13.9977C31.7656 15.675 34.4375 17.1445 34.4375 19C34.4375 20.8555 31.7953 22.2656 31.068 24.0023C30.3406 25.7391 31.2758 28.5445 29.9102 29.9102C28.5445 31.2758 25.6797 30.3703 24.0023 31.068C22.325 31.7656 20.8555 34.4375 19 34.4375C17.1445 34.4375 15.7344 31.7953 13.9977 31.068C12.2609 30.3406 9.45547 31.2758 8.08984 29.9102Z" stroke="currentColor" stroke-width="2" stroke-linecap="round" stroke-linejoin="round"/>
</g>
</svg>
