<svg width="1em" height="1em" viewBox="0 0 38 38" fill="none" xmlns="http://www.w3.org/2000/svg">
<g id="Laptop">
<path id="Vector" opacity="0.2" d="M5.9375 26.125V10.6875C5.9375 10.0576 6.18772 9.45352 6.63312 9.00812C7.07852 8.56272 7.68261 8.3125 8.3125 8.3125H29.6875C30.3174 8.3125 30.9215 8.56272 31.3669 9.00812C31.8123 9.45352 32.0625 10.0576 32.0625 10.6875V26.125H5.9375Z" fill="currentColor"/>
<path id="Vector_2" d="M5.9375 26.125V10.6875C5.9375 10.0576 6.18772 9.45352 6.63312 9.00812C7.07852 8.56272 7.68261 8.3125 8.3125 8.3125H29.6875C30.3174 8.3125 30.9215 8.56272 31.3669 9.00812C31.8123 9.45352 32.0625 10.0576 32.0625 10.6875V26.125M21.375 13.0625H16.625M3.5625 26.125H34.4375V28.5C34.4375 29.1299 34.1873 29.734 33.7419 30.1794C33.2965 30.6248 32.6924 30.875 32.0625 30.875H5.9375C5.30761 30.875 4.70352 30.6248 4.25812 30.1794C3.81272 29.734 3.5625 29.1299 3.5625 28.5V26.125Z" stroke="currentColor" stroke-width="2" stroke-linecap="round" stroke-linejoin="round"/>
</g>
</svg>
