<svg width="1em" height="1em" viewBox="0 0 38 38" fill="none" xmlns="http://www.w3.org/2000/svg">
<g id="Lightbulb">
<path id="Vector" opacity="0.2" d="M11.682 24.7885C10.2683 23.6892 9.1233 22.2826 8.33376 20.6753C7.54423 19.0679 7.13087 17.3019 7.125 15.5111C7.09532 9.06896 12.2758 3.71037 18.718 3.56193C21.2112 3.50283 23.6598 4.2302 25.7164 5.6409C27.7731 7.05159 29.3334 9.07399 30.176 11.4213C31.0187 13.7686 31.1009 16.3216 30.4111 18.7182C29.7213 21.1149 28.2944 23.2335 26.3328 24.7736C25.8995 25.1086 25.5485 25.5382 25.3067 26.0296C25.0648 26.521 24.9386 27.0611 24.9375 27.6088V28.4994C24.9375 28.8144 24.8124 29.1164 24.5897 29.3391C24.367 29.5618 24.0649 29.6869 23.75 29.6869H14.25C13.9351 29.6869 13.633 29.5618 13.4103 29.3391C13.1876 29.1164 13.0625 28.8144 13.0625 28.4994V27.6088C13.0588 27.0652 12.9328 26.5295 12.6938 26.0413C12.4548 25.553 12.109 25.1249 11.682 24.7885Z" fill="currentColor"/>
<path id="Union" fill-rule="evenodd" clip-rule="evenodd" d="M25.1507 6.46554C23.2672 5.17364 21.0249 4.50752 18.7416 4.56165L18.7409 4.56167C18.4981 4.56726 18.2571 4.58096 18.0184 4.6025L18.6948 2.5622C21.3978 2.49826 24.0523 3.28688 26.282 4.81625C28.5118 6.34574 30.2035 8.53844 31.1171 11.0834C32.0307 13.6283 32.1199 16.3963 31.372 18.9948C30.6241 21.5933 29.077 23.8903 26.9503 25.5602L26.9443 25.5649L26.9443 25.5648C26.6316 25.8065 26.3783 26.1165 26.2038 26.4711C26.0293 26.8257 25.9382 27.2155 25.9374 27.6107V28.4994C25.9374 29.0796 25.7069 29.636 25.2967 30.0462C24.8865 30.4565 24.3301 30.6869 23.7499 30.6869H14.2499C13.6697 30.6869 13.1133 30.4565 12.7031 30.0462C12.2929 29.636 12.0624 29.0796 12.0624 28.4994V27.6125C12.0592 27.2201 11.968 26.8334 11.7955 26.4809C11.6229 26.1283 11.3734 25.819 11.0654 25.5758L11.7412 23.5373C11.9205 23.6971 12.1055 23.8511 12.2958 23.9991L11.6819 24.7885L12.3008 24.003C12.8456 24.4322 13.2869 24.9786 13.5919 25.6016C13.8968 26.2247 14.0576 26.9083 14.0624 27.602L14.0624 27.6088L14.0624 28.4994C14.0624 28.5492 14.0822 28.5969 14.1173 28.632C14.1525 28.6672 14.2002 28.6869 14.2499 28.6869H23.7499C23.7996 28.6869 23.8473 28.6672 23.8825 28.632C23.9176 28.5969 23.9374 28.5492 23.9374 28.4994V27.6088L23.9374 27.6069C23.9388 26.9067 24.1002 26.2162 24.4093 25.588C24.7179 24.961 25.1655 24.4128 25.7179 23.985C27.5129 22.5747 28.8186 20.6353 29.45 18.4416C30.0817 16.2468 30.0064 13.9088 29.2347 11.7592C28.463 9.60954 27.0341 7.75744 25.1507 6.46554ZM11.7411 23.5373L11.7412 23.5373L18.0184 4.6025L18.0178 4.60255L18.6942 2.56221C11.7041 2.72363 6.09308 8.5318 6.12491 15.5151C6.13137 17.4574 6.57975 19.3728 7.43609 21.1162C8.29203 22.8587 9.53309 24.3837 11.0654 25.5758L11.7411 23.5373ZM11.7411 23.5373C10.7006 22.6103 9.84758 21.4892 9.23122 20.2344C8.50859 18.7632 8.13026 17.1469 8.12489 15.5079L8.12489 15.5065C8.09882 9.84932 12.4635 5.10401 18.0178 4.60255L11.7411 23.5373ZM12.0625 34.437C12.0625 33.8847 12.5102 33.437 13.0625 33.437H24.9375C25.4898 33.437 25.9375 33.8847 25.9375 34.437C25.9375 34.9892 25.4898 35.437 24.9375 35.437H13.0625C12.5102 35.437 12.0625 34.9892 12.0625 34.437ZM20.3695 7.44477C19.825 7.35247 19.3087 7.71906 19.2164 8.26357C19.1241 8.80809 19.4907 9.32434 20.0352 9.41664C21.2825 9.62807 22.4333 10.2214 23.329 11.1148C24.2247 12.0082 24.821 13.1576 25.0356 14.4043C25.1293 14.9485 25.6465 15.3138 26.1907 15.2201C26.735 15.1264 27.1003 14.6092 27.0066 14.065C26.7217 12.4102 25.9303 10.8846 24.7414 9.69879C23.5526 8.51298 22.025 7.72541 20.3695 7.44477Z" fill="currentColor"/>
</g>
</svg>
