<svg width="1em" height="1em" viewBox="0 0 43 42" fill="none" xmlns="http://www.w3.org/2000/svg">
<g id="Rocket">
<path id="Union" opacity="0.2" fill-rule="evenodd" clip-rule="evenodd" d="M35.5943 24.3473L30.4428 18.1621C30.6396 21.952 29.7045 26.3652 26.817 31.4019L31.7389 35.3394C31.9139 35.4784 32.1215 35.5704 32.342 35.6067C32.5625 35.643 32.7887 35.6224 32.999 35.5468C33.2093 35.4712 33.3968 35.3432 33.5438 35.1748C33.6908 35.0065 33.7923 34.8034 33.8389 34.5848L35.8568 25.4629C35.9055 25.2695 35.907 25.0672 35.8614 24.8731C35.8157 24.679 35.7241 24.4987 35.5943 24.3473ZM7.63806 24.4457L12.7896 18.277C12.5927 22.0668 13.5279 26.4801 16.4154 31.5004L11.4935 35.4379C11.3196 35.5769 11.1132 35.6693 10.8937 35.7065C10.6743 35.7437 10.4489 35.7245 10.2389 35.6507C10.0289 35.5769 9.84115 35.4509 9.69326 35.2845C9.54537 35.1181 9.44223 34.9168 9.39353 34.6996L7.37556 25.5613C7.32691 25.3679 7.32536 25.1657 7.37104 24.9716C7.41671 24.7775 7.50828 24.5971 7.63806 24.4457Z" fill="currentColor"/>
<path id="Union_2" fill-rule="evenodd" clip-rule="evenodd" d="M20.2132 2.47353C20.6217 2.13596 21.1351 1.95117 21.6653 1.95117C22.1971 1.95117 22.7121 2.13707 23.1212 2.47657C24.7301 3.7867 28.2128 7.0357 30.1373 12.0381C30.798 13.7554 31.2701 15.6673 31.4253 17.7625L36.4572 23.8008C36.6883 24.0724 36.8515 24.3951 36.9332 24.7424C37.0142 25.0868 37.0128 25.4453 36.9291 25.7889L34.9138 34.9151L34.9131 34.9182C34.8273 35.3009 34.6455 35.6555 34.385 35.9487C34.1244 36.2418 33.7936 36.4639 33.4236 36.5939C33.0535 36.724 32.6565 36.7579 32.2698 36.6923C31.8831 36.6267 31.5195 36.4638 31.2131 36.219L31.2126 36.2186L26.5646 32.5002H16.7662L12.1182 36.2186L12.1177 36.219C11.8113 36.4638 11.4477 36.6267 11.061 36.6923C10.6743 36.7579 10.2773 36.724 9.90727 36.5939C9.53726 36.4639 9.20641 36.2418 8.94584 35.9487C8.68527 35.6555 8.50355 35.3009 8.41775 34.9182L8.41706 34.9151L6.40177 25.7889C6.31804 25.4453 6.31658 25.0868 6.39762 24.7424C6.47936 24.395 6.64268 24.072 6.87401 23.8004L11.8088 17.8912C11.9513 15.7424 12.4328 13.7842 13.1145 12.029C15.058 7.02537 18.5854 3.77698 20.2132 2.47353ZM29.4558 18.3076C29.4446 18.2387 29.4406 18.169 29.4438 18.0996C29.3181 16.1202 28.879 14.3374 28.2707 12.7563C26.5219 8.21065 23.3318 5.22661 21.8544 4.02428L21.8446 4.01626L21.8446 4.01619C21.7943 3.97418 21.7309 3.95117 21.6653 3.95117C21.5998 3.95117 21.5363 3.97418 21.486 4.01619L21.4697 4.02954C19.9771 5.22365 16.7444 8.20744 14.9788 12.7531C14.3468 14.3804 13.8969 16.2219 13.7896 18.2718C13.7898 18.3084 13.788 18.345 13.7842 18.3815C13.6245 21.8411 14.4416 25.8898 16.9985 30.5002H26.3263C28.8486 25.8569 29.6366 21.7836 29.4558 18.3076ZM34.9245 25.0857L31.4177 20.8775C31.1755 24.0045 30.2142 27.4702 28.197 31.2448L32.4615 34.6565C32.5029 34.6896 32.5521 34.7116 32.6043 34.7204C32.6566 34.7293 32.7102 34.7247 32.7602 34.7071C32.8102 34.6896 32.8549 34.6596 32.8901 34.6199C32.9251 34.5806 32.9496 34.533 32.9613 34.4817L32.9615 34.4807L34.9788 25.3455C34.9809 25.3361 34.9831 25.3266 34.9855 25.3172C34.9951 25.2789 34.9954 25.2389 34.9864 25.2004C34.9773 25.162 34.9592 25.1263 34.9335 25.0963L34.9245 25.0858L34.9245 25.0857ZM11.8405 20.9734L8.40561 25.0865L8.39739 25.0964L8.39732 25.0963C8.37163 25.1263 8.3535 25.162 8.34445 25.2004C8.33541 25.2389 8.33572 25.2789 8.34535 25.3172C8.34772 25.3266 8.34995 25.3361 8.35204 25.3455L10.3693 34.4807L10.3695 34.4817C10.3812 34.533 10.4057 34.5806 10.4407 34.6199C10.4759 34.6596 10.5206 34.6896 10.5706 34.7071C10.6206 34.7247 10.6743 34.7293 10.7265 34.7204C10.7788 34.7116 10.8279 34.6896 10.8693 34.6565L15.1281 31.2495C13.0909 27.5131 12.1056 24.0779 11.8405 20.9734ZM18.0404 36.7502C18.0404 36.1979 18.4881 35.7502 19.0404 35.7502H24.2904C24.8427 35.7502 25.2904 36.1979 25.2904 36.7502C25.2904 37.3025 24.8427 37.7502 24.2904 37.7502H19.0404C18.4881 37.7502 18.0404 37.3025 18.0404 36.7502ZM23.6342 15.7502C23.6342 16.8375 22.7527 17.719 21.6654 17.719C20.5781 17.719 19.6967 16.8375 19.6967 15.7502C19.6967 14.6629 20.5781 13.7815 21.6654 13.7815C22.7527 13.7815 23.6342 14.6629 23.6342 15.7502Z" fill="currentColor"/>
</g>
</svg>
