<svg width="106" height="69" viewBox="0 0 106 69" fill="none" xmlns="http://www.w3.org/2000/svg">
<g clip-path="url(#clip0_2270_141661)">
<path d="M102 0.568726H4C1.79086 0.568726 0 2.35959 0 4.56873V64.5687C0 66.7779 1.79086 68.5687 4 68.5687H102C104.209 68.5687 106 66.7779 106 64.5687V4.56873C106 2.35959 104.209 0.568726 102 0.568726Z" fill="#8692D0" fill-opacity="0.04"/>
<path d="M0 4.56873C0 2.35959 1.79086 0.568726 4 0.568726H28V68.5687H4C1.79086 68.5687 0 66.7779 0 64.5687V4.56873Z" fill="#8692D0" fill-opacity="0.08"/>
<path d="M21.563 25.1765H6.43699C5.64336 25.1765 5 25.8199 5 26.6135V26.6135C5 27.4071 5.64336 28.0505 6.43699 28.0505H21.563C22.3566 28.0505 23 27.4071 23 26.6135C23 25.8199 22.3566 25.1765 21.563 25.1765Z" fill="#8692D0" fill-opacity="0.16"/>
<path d="M17 6.62817H11C9.89543 6.62817 9 7.5236 9 8.62817V14.6282C9 15.7327 9.89543 16.6282 11 16.6282H17C18.1046 16.6282 19 15.7327 19 14.6282V8.62817C19 7.5236 18.1046 6.62817 17 6.62817Z" fill="#8692D0" fill-opacity="0.16"/>
<path d="M21.563 36.0504H6.43699C5.64336 36.0504 5 36.6938 5 37.4874V37.4874C5 38.281 5.64336 38.9244 6.43699 38.9244H21.563C22.3566 38.9244 23 38.281 23 37.4874C23 36.6938 22.3566 36.0504 21.563 36.0504Z" fill="#8692D0" fill-opacity="0.16"/>
<path d="M21.563 46.9244H6.43699C5.64336 46.9244 5 47.5678 5 48.3614V48.3614C5 49.1551 5.64336 49.7984 6.43699 49.7984H21.563C22.3566 49.7984 23 49.1551 23 48.3614C23 47.5678 22.3566 46.9244 21.563 46.9244Z" fill="#8692D0" fill-opacity="0.16"/>
<path d="M21.563 57.7983H6.43699C5.64336 57.7983 5 58.4417 5 59.2353V59.2353C5 60.029 5.64336 60.6723 6.43699 60.6723H21.563C22.3566 60.6723 23 60.029 23 59.2353C23 58.4417 22.3566 57.7983 21.563 57.7983Z" fill="#8692D0" fill-opacity="0.16"/>
<path d="M97.1836 6.2843H60.1836C59.079 6.2843 58.1836 7.17973 58.1836 8.2843V22.4176C58.1836 23.5222 59.079 24.4176 60.1836 24.4176H97.1836C98.2882 24.4176 99.1836 23.5222 99.1836 22.4176V8.2843C99.1836 7.17973 98.2882 6.2843 97.1836 6.2843Z" fill="#8692D0" fill-opacity="0.08"/>
<path d="M50.1833 6.2843H34.7715C33.6669 6.2843 32.7715 7.17973 32.7715 8.2843V22.4176C32.7715 23.5222 33.6669 24.4176 34.7715 24.4176H50.1833C51.2879 24.4176 52.1833 23.5222 52.1833 22.4176V8.2843C52.1833 7.17973 51.2879 6.2843 50.1833 6.2843Z" fill="#8692D0" fill-opacity="0.08"/>
<path d="M97 30.2844H35C33.8954 30.2844 33 31.1799 33 32.2844V60.2844C33 61.389 33.8954 62.2844 35 62.2844H97C98.1046 62.2844 99 61.389 99 60.2844V32.2844C99 31.1799 98.1046 30.2844 97 30.2844Z" fill="#8692D0" fill-opacity="0.08"/>
</g>
<defs>
<clipPath id="clip0_2270_141661">
<rect width="106" height="69" fill="white"/>
</clipPath>
</defs>
</svg>
