<svg width="106" height="69" viewBox="0 0 106 69" fill="none" xmlns="http://www.w3.org/2000/svg">
<g clip-path="url(#clip0_2270_141479)">
<path d="M102 0.217651H4C1.79086 0.217651 0 2.00851 0 4.21765V64.2177C0 66.4268 1.79086 68.2177 4 68.2177H102C104.209 68.2177 106 66.4268 106 64.2177V4.21765C106 2.00851 104.209 0.217651 102 0.217651Z" fill="#3A3541" fill-opacity="0.02"/>
<path d="M0 4.21765C0 2.00851 1.79086 0.217651 4 0.217651H28V68.2177H4C1.79086 68.2177 0 66.4268 0 64.2177V4.21765Z" fill="#3A3541"/>
<path d="M0 4.21765C0 2.00851 1.79086 0.217651 4 0.217651H28V68.2177H4C1.79086 68.2177 0 66.4268 0 64.2177V4.21765Z" fill="white" fill-opacity="0.2"/>
<path d="M21.563 24.8254H6.43699C5.64336 24.8254 5 25.4688 5 26.2624V26.2624C5 27.056 5.64336 27.6994 6.43699 27.6994H21.563C22.3566 27.6994 23 27.056 23 26.2624C23 25.4688 22.3566 24.8254 21.563 24.8254Z" fill="#3A3541"/>
<path d="M21.563 24.8254H6.43699C5.64336 24.8254 5 25.4688 5 26.2624V26.2624C5 27.056 5.64336 27.6994 6.43699 27.6994H21.563C22.3566 27.6994 23 27.056 23 26.2624C23 25.4688 22.3566 24.8254 21.563 24.8254Z" fill="white" fill-opacity="0.6"/>
<path d="M17 6.27716H11C9.89543 6.27716 9 7.17259 9 8.27716V14.2772C9 15.3817 9.89543 16.2772 11 16.2772H17C18.1046 16.2772 19 15.3817 19 14.2772V8.27716C19 7.17259 18.1046 6.27716 17 6.27716Z" fill="#3A3541"/>
<path d="M17 6.27716H11C9.89543 6.27716 9 7.17259 9 8.27716V14.2772C9 15.3817 9.89543 16.2772 11 16.2772H17C18.1046 16.2772 19 15.3817 19 14.2772V8.27716C19 7.17259 18.1046 6.27716 17 6.27716Z" fill="white" fill-opacity="0.6"/>
<path d="M21.563 35.6993H6.43699C5.64336 35.6993 5 36.3427 5 37.1363V37.1363C5 37.9299 5.64336 38.5733 6.43699 38.5733H21.563C22.3566 38.5733 23 37.9299 23 37.1363C23 36.3427 22.3566 35.6993 21.563 35.6993Z" fill="#3A3541"/>
<path d="M21.563 35.6993H6.43699C5.64336 35.6993 5 36.3427 5 37.1363V37.1363C5 37.9299 5.64336 38.5733 6.43699 38.5733H21.563C22.3566 38.5733 23 37.9299 23 37.1363C23 36.3427 22.3566 35.6993 21.563 35.6993Z" fill="white" fill-opacity="0.6"/>
<path d="M21.563 46.5733H6.43699C5.64336 46.5733 5 47.2167 5 48.0103V48.0103C5 48.8039 5.64336 49.4473 6.43699 49.4473H21.563C22.3566 49.4473 23 48.8039 23 48.0103C23 47.2167 22.3566 46.5733 21.563 46.5733Z" fill="#3A3541"/>
<path d="M21.563 46.5733H6.43699C5.64336 46.5733 5 47.2167 5 48.0103V48.0103C5 48.8039 5.64336 49.4473 6.43699 49.4473H21.563C22.3566 49.4473 23 48.8039 23 48.0103C23 47.2167 22.3566 46.5733 21.563 46.5733Z" fill="white" fill-opacity="0.6"/>
<path d="M21.563 57.4473H6.43699C5.64336 57.4473 5 58.0907 5 58.8843V58.8843C5 59.678 5.64336 60.3213 6.43699 60.3213H21.563C22.3566 60.3213 23 59.678 23 58.8843C23 58.0907 22.3566 57.4473 21.563 57.4473Z" fill="#3A3541"/>
<path d="M21.563 57.4473H6.43699C5.64336 57.4473 5 58.0907 5 58.8843V58.8843C5 59.678 5.64336 60.3213 6.43699 60.3213H21.563C22.3566 60.3213 23 59.678 23 58.8843C23 58.0907 22.3566 57.4473 21.563 57.4473Z" fill="white" fill-opacity="0.6"/>
<path d="M98.7715 5.03094H36.7715C35.6669 5.03094 34.7715 5.92638 34.7715 7.03094V12.0976C34.7715 13.2022 35.6669 14.0976 36.7715 14.0976H98.7715C99.8761 14.0976 100.771 13.2022 100.771 12.0976V7.03094C100.771 5.92638 99.8761 5.03094 98.7715 5.03094Z" fill="#3A3541" fill-opacity="0.08"/>
<path d="M40.752 7.29755H38.752C38.1997 7.29755 37.752 7.74526 37.752 8.29755V10.8309C37.752 11.3832 38.1997 11.8309 38.752 11.8309H40.752C41.3042 11.8309 41.752 11.3832 41.752 10.8309V8.29755C41.752 7.74526 41.3042 7.29755 40.752 7.29755Z" fill="#3A3541" fill-opacity="0.16"/>
<path d="M84.752 7.29755H82.752C82.1997 7.29755 81.752 7.74526 81.752 8.29755V10.8309C81.752 11.3832 82.1997 11.8309 82.752 11.8309H84.752C85.3042 11.8309 85.752 11.3832 85.752 10.8309V8.29755C85.752 7.74526 85.3042 7.29755 84.752 7.29755Z" fill="#3A3541" fill-opacity="0.16"/>
<path d="M90.752 7.29755H88.752C88.1997 7.29755 87.752 7.74526 87.752 8.29755V10.8309C87.752 11.3832 88.1997 11.8309 88.752 11.8309H90.752C91.3042 11.8309 91.752 11.3832 91.752 10.8309V8.29755C91.752 7.74526 91.3042 7.29755 90.752 7.29755Z" fill="#3A3541" fill-opacity="0.16"/>
<path d="M96.752 7.29755H94.752C94.1997 7.29755 93.752 7.74526 93.752 8.29755V10.8309C93.752 11.3832 94.1997 11.8309 94.752 11.8309H96.752C97.3042 11.8309 97.752 11.3832 97.752 10.8309V8.29755C97.752 7.74526 97.3042 7.29755 96.752 7.29755Z" fill="#3A3541" fill-opacity="0.16"/>
<path d="M98.6094 20.4255H61.6094C60.5048 20.4255 59.6094 21.3209 59.6094 22.4255V36.5588C59.6094 37.6634 60.5048 38.5588 61.6094 38.5588H98.6094C99.7139 38.5588 100.609 37.6634 100.609 36.5588V22.4255C100.609 21.3209 99.7139 20.4255 98.6094 20.4255Z" fill="#3A3541" fill-opacity="0.08"/>
<path d="M52.1833 20.4255H36.7715C35.6669 20.4255 34.7715 21.3209 34.7715 22.4255V36.5588C34.7715 37.6634 35.6669 38.5588 36.7715 38.5588H52.1833C53.2879 38.5588 54.1833 37.6634 54.1833 36.5588V22.4255C54.1833 21.3209 53.2879 20.4255 52.1833 20.4255Z" fill="#3A3541" fill-opacity="0.08"/>
<path d="M98.7715 43.9587H36.7715C35.6669 43.9587 34.7715 44.8541 34.7715 45.9587V60.092C34.7715 61.1966 35.6669 62.092 36.7715 62.092H98.7715C99.8761 62.092 100.771 61.1966 100.771 60.092V45.9587C100.771 44.8541 99.8761 43.9587 98.7715 43.9587Z" fill="#3A3541" fill-opacity="0.08"/>
</g>
<defs>
<clipPath id="clip0_2270_141479">
<rect width="106" height="69" fill="white"/>
</clipPath>
</defs>
</svg>
