<svg width="106" height="68" viewBox="0 0 106 68" fill="none" xmlns="http://www.w3.org/2000/svg">
<rect y="3.05176e-05" width="106" height="68" rx="4" fill="#E7E3FC" fill-opacity="0.02"/>
<path d="M0 4.00003C0 1.79089 1.79086 3.05176e-05 4 3.05176e-05H28V68H4C1.79086 68 0 66.2092 0 64V4.00003Z" fill="#E7E3FC" fill-opacity="0.87"/>
<rect x="5" y="24.6078" width="18" height="2.87399" rx="1.43699" fill="#3A3541" fill-opacity="0.87"/>
<rect x="5" y="24.6078" width="18" height="2.87399" rx="1.43699" stroke="#DBDADE"/>
<rect x="9" y="6.05954" width="10" height="10" rx="2" fill="#3A3541" fill-opacity="0.87"/>
<rect x="9" y="6.05954" width="10" height="10" rx="2" stroke="#DBDADE"/>
<rect x="5" y="35.4817" width="18" height="2.87399" rx="1.43699" fill="#3A3541" fill-opacity="0.87"/>
<rect x="5" y="35.4817" width="18" height="2.87399" rx="1.43699" stroke="#DBDADE"/>
<rect x="5" y="46.3557" width="18" height="2.87399" rx="1.43699" fill="#3A3541" fill-opacity="0.87"/>
<rect x="5" y="46.3557" width="18" height="2.87399" rx="1.43699" stroke="#DBDADE"/>
<rect x="5" y="57.2296" width="18" height="2.87399" rx="1.43699" fill="#3A3541" fill-opacity="0.87"/>
<rect x="5" y="57.2296" width="18" height="2.87399" rx="1.43699" stroke="#DBDADE"/>
<rect x="34.7715" y="4.81332" width="66" height="9.06667" rx="2" fill="#E7E3FC" fill-opacity="0.08"/>
<rect x="59.6094" y="20.2079" width="41" height="18.1333" rx="2" fill="#E7E3FC" fill-opacity="0.08"/>
<rect x="34.7715" y="20.2079" width="19.4118" height="18.1333" rx="2" fill="#E7E3FC" fill-opacity="0.08"/>
<rect x="34.7715" y="43.7411" width="66" height="18.1333" rx="2" fill="#E7E3FC" fill-opacity="0.08"/>
</svg>
