<svg xmlns="http://www.w3.org/2000/svg" width="24" height="37" viewBox="0 0 24 37" fill="none">
  <path opacity="0.16" d="M13.0142 22.4759C13.2544 20.1159 13.3944 17.8759 13.7146 15.6559C14.275 11.8259 15.686 8.24593 17.3672 4.78593C17.8875 3.71593 18.598 2.71593 19.3185 1.75593C19.9189 0.955935 20.7195 0.395947 21.8403 0.705947C22.941 1.00595 23.3513 1.87593 23.5314 2.86593C23.9317 5.09593 24.0018 7.34594 23.6415 9.57594C23.1011 12.9559 22.4407 16.3159 21.9003 19.6959C21.2699 23.6359 20.7096 27.5859 20.1091 31.5359C19.9691 32.4459 19.7888 33.3459 19.6387 34.2559C19.3786 35.9259 17.7574 37.1359 15.8561 36.0959C10.6326 33.2159 5.69911 29.9359 1.6563 25.4859C0.95581 24.7259 0.515486 23.6759 0.135222 22.6959C-0.255049 21.7059 0.2353 20.6059 1.14594 20.0359C2.08659 19.4459 3.11731 19.2359 4.22809 19.3459C6.87993 19.6059 9.26156 20.6559 11.5831 21.8659C11.9034 22.0259 12.2036 22.2159 12.5238 22.3659C12.6639 22.4259 12.8141 22.4359 13.0142 22.4759Z" fill="currentColor" fill-opacity="0.9"/>
</svg>
